<mxfile host="Electron" agent="Mozilla/5.0 (Windows NT 10.0; Win64; x64) AppleWebKit/537.36 (KHTML, like Gecko) draw.io/27.0.9 Chrome/134.0.6998.205 Electron/35.4.0 Safari/537.36" version="27.0.9">
  <diagram name="Page-1" id="xOhYyevzNWbwO6su-3oU">
    <mxGraphModel dx="1426" dy="841" grid="1" gridSize="10" guides="1" tooltips="1" connect="1" arrows="1" fold="1" page="1" pageScale="1" pageWidth="850" pageHeight="1100" math="0" shadow="0">
      <root>
        <mxCell id="0" />
        <mxCell id="1" parent="0" />
        <mxCell id="L3l7ycFmvAnoxzPl64c1-2" value="Scheduler" style="shape=umlActor;verticalLabelPosition=bottom;verticalAlign=top;html=1;outlineConnect=0;" parent="1" vertex="1">
          <mxGeometry x="50" y="170" width="30" height="60" as="geometry" />
        </mxCell>
        <mxCell id="L3l7ycFmvAnoxzPl64c1-3" value="" style="html=1;points=[[0,0,0,0,5],[0,1,0,0,-5],[1,0,0,0,5],[1,1,0,0,-5]];perimeter=orthogonalPerimeter;outlineConnect=0;targetShapes=umlLifeline;portConstraint=eastwest;newEdgeStyle={&quot;curved&quot;:0,&quot;rounded&quot;:0};" parent="1" vertex="1">
          <mxGeometry x="60" y="260" width="10" height="510" as="geometry" />
        </mxCell>
        <mxCell id="L3l7ycFmvAnoxzPl64c1-4" value="" style="endArrow=classic;html=1;rounded=0;entryX=0;entryY=0;entryDx=0;entryDy=5;entryPerimeter=0;" parent="1" source="L3l7ycFmvAnoxzPl64c1-3" target="L3l7ycFmvAnoxzPl64c1-8" edge="1">
          <mxGeometry width="50" height="50" relative="1" as="geometry">
            <mxPoint x="341" y="410" as="sourcePoint" />
            <mxPoint x="232" y="280" as="targetPoint" />
          </mxGeometry>
        </mxCell>
        <mxCell id="L3l7ycFmvAnoxzPl64c1-5" value="1. archive()" style="edgeLabel;html=1;align=center;verticalAlign=middle;resizable=0;points=[];" parent="L3l7ycFmvAnoxzPl64c1-4" vertex="1" connectable="0">
          <mxGeometry x="-0.2795" y="3" relative="1" as="geometry">
            <mxPoint x="23" y="-12" as="offset" />
          </mxGeometry>
        </mxCell>
        <mxCell id="L3l7ycFmvAnoxzPl64c1-6" value="FileService" style="rounded=0;whiteSpace=wrap;html=1;" parent="1" vertex="1">
          <mxGeometry x="197" y="170" width="120" height="60" as="geometry" />
        </mxCell>
        <mxCell id="L3l7ycFmvAnoxzPl64c1-7" value="MongoDB" style="shape=cylinder3;whiteSpace=wrap;html=1;boundedLbl=1;backgroundOutline=1;size=15;" parent="1" vertex="1">
          <mxGeometry x="780" y="160" width="60" height="80" as="geometry" />
        </mxCell>
        <mxCell id="L3l7ycFmvAnoxzPl64c1-10" value="" style="endArrow=classic;html=1;rounded=0;entryX=0;entryY=0;entryDx=0;entryDy=5;entryPerimeter=0;" parent="1" source="L3l7ycFmvAnoxzPl64c1-8" target="L3l7ycFmvAnoxzPl64c1-23" edge="1">
          <mxGeometry width="50" height="50" relative="1" as="geometry">
            <mxPoint x="360" y="460" as="sourcePoint" />
            <mxPoint x="650" y="450" as="targetPoint" />
          </mxGeometry>
        </mxCell>
        <mxCell id="L3l7ycFmvAnoxzPl64c1-11" value="2. findData(&quot;/dumps&quot;)" style="edgeLabel;html=1;align=center;verticalAlign=middle;resizable=0;points=[];" parent="L3l7ycFmvAnoxzPl64c1-10" vertex="1" connectable="0">
          <mxGeometry x="-0.3576" y="1" relative="1" as="geometry">
            <mxPoint x="55" y="-14" as="offset" />
          </mxGeometry>
        </mxCell>
        <mxCell id="L3l7ycFmvAnoxzPl64c1-12" value="" style="endArrow=classic;html=1;rounded=0;dashed=1;exitX=0.5;exitY=0.788;exitDx=0;exitDy=0;exitPerimeter=0;" parent="1" source="L3l7ycFmvAnoxzPl64c1-23" target="L3l7ycFmvAnoxzPl64c1-8" edge="1">
          <mxGeometry width="50" height="50" relative="1" as="geometry">
            <mxPoint x="427" y="486" as="sourcePoint" />
            <mxPoint x="262" y="486" as="targetPoint" />
          </mxGeometry>
        </mxCell>
        <mxCell id="L3l7ycFmvAnoxzPl64c1-13" value="3. [file1.json, file2.json]" style="edgeLabel;html=1;align=center;verticalAlign=middle;resizable=0;points=[];" parent="L3l7ycFmvAnoxzPl64c1-12" vertex="1" connectable="0">
          <mxGeometry x="0.6121" y="3" relative="1" as="geometry">
            <mxPoint x="86" y="-16" as="offset" />
          </mxGeometry>
        </mxCell>
        <mxCell id="L3l7ycFmvAnoxzPl64c1-18" value="" style="endArrow=classic;html=1;rounded=0;exitX=0;exitY=1;exitDx=0;exitDy=-5;exitPerimeter=0;" parent="1" source="L3l7ycFmvAnoxzPl64c1-8" target="L3l7ycFmvAnoxzPl64c1-3" edge="1">
          <mxGeometry width="50" height="50" relative="1" as="geometry">
            <mxPoint x="712" y="540" as="sourcePoint" />
            <mxPoint x="70" y="550" as="targetPoint" />
          </mxGeometry>
        </mxCell>
        <mxCell id="L3l7ycFmvAnoxzPl64c1-19" value="10. Finished" style="edgeLabel;html=1;align=center;verticalAlign=middle;resizable=0;points=[];" parent="L3l7ycFmvAnoxzPl64c1-18" vertex="1" connectable="0">
          <mxGeometry x="0.2671" y="1" relative="1" as="geometry">
            <mxPoint x="22" y="-16" as="offset" />
          </mxGeometry>
        </mxCell>
        <mxCell id="L3l7ycFmvAnoxzPl64c1-20" value="" style="endArrow=none;dashed=1;html=1;dashPattern=1 3;strokeWidth=2;rounded=0;" parent="1" source="L3l7ycFmvAnoxzPl64c1-27" target="L3l7ycFmvAnoxzPl64c1-7" edge="1">
          <mxGeometry width="50" height="50" relative="1" as="geometry">
            <mxPoint x="712" y="540" as="sourcePoint" />
            <mxPoint x="762" y="490" as="targetPoint" />
          </mxGeometry>
        </mxCell>
        <mxCell id="L3l7ycFmvAnoxzPl64c1-21" value="" style="endArrow=none;dashed=1;html=1;dashPattern=1 3;strokeWidth=2;rounded=0;" parent="1" source="L3l7ycFmvAnoxzPl64c1-8" target="L3l7ycFmvAnoxzPl64c1-6" edge="1">
          <mxGeometry width="50" height="50" relative="1" as="geometry">
            <mxPoint x="712" y="540" as="sourcePoint" />
            <mxPoint x="762" y="490" as="targetPoint" />
          </mxGeometry>
        </mxCell>
        <mxCell id="L3l7ycFmvAnoxzPl64c1-22" value="FileSystem" style="rounded=0;whiteSpace=wrap;html=1;" parent="1" vertex="1">
          <mxGeometry x="440" y="170" width="120" height="60" as="geometry" />
        </mxCell>
        <mxCell id="L3l7ycFmvAnoxzPl64c1-23" value="" style="html=1;points=[[0,0,0,0,5],[0,1,0,0,-5],[1,0,0,0,5],[1,1,0,0,-5]];perimeter=orthogonalPerimeter;outlineConnect=0;targetShapes=umlLifeline;portConstraint=eastwest;newEdgeStyle={&quot;curved&quot;:0,&quot;rounded&quot;:0};" parent="1" vertex="1">
          <mxGeometry x="490" y="310" width="10" height="50" as="geometry" />
        </mxCell>
        <mxCell id="L3l7ycFmvAnoxzPl64c1-24" value="" style="endArrow=none;dashed=1;html=1;dashPattern=1 3;strokeWidth=2;rounded=0;" parent="1" source="L3l7ycFmvAnoxzPl64c1-23" target="L3l7ycFmvAnoxzPl64c1-22" edge="1">
          <mxGeometry width="50" height="50" relative="1" as="geometry">
            <mxPoint x="640" y="330" as="sourcePoint" />
            <mxPoint x="640" y="270" as="targetPoint" />
          </mxGeometry>
        </mxCell>
        <mxCell id="L3l7ycFmvAnoxzPl64c1-26" value="" style="html=1;points=[[0,0,0,0,5],[0,1,0,0,-5],[1,0,0,0,5],[1,1,0,0,-5]];perimeter=orthogonalPerimeter;outlineConnect=0;targetShapes=umlLifeline;portConstraint=eastwest;newEdgeStyle={&quot;curved&quot;:0,&quot;rounded&quot;:0};" parent="1" vertex="1">
          <mxGeometry x="490" y="385" width="10" height="50" as="geometry" />
        </mxCell>
        <mxCell id="L3l7ycFmvAnoxzPl64c1-27" value="" style="html=1;points=[[0,0,0,0,5],[0,1,0,0,-5],[1,0,0,0,5],[1,1,0,0,-5]];perimeter=orthogonalPerimeter;outlineConnect=0;targetShapes=umlLifeline;portConstraint=eastwest;newEdgeStyle={&quot;curved&quot;:0,&quot;rounded&quot;:0};" parent="1" vertex="1">
          <mxGeometry x="805" y="455" width="10" height="50" as="geometry" />
        </mxCell>
        <mxCell id="L3l7ycFmvAnoxzPl64c1-29" value="" style="html=1;points=[[0,0,0,0,5],[0,1,0,0,-5],[1,0,0,0,5],[1,1,0,0,-5]];perimeter=orthogonalPerimeter;outlineConnect=0;targetShapes=umlLifeline;portConstraint=eastwest;newEdgeStyle={&quot;curved&quot;:0,&quot;rounded&quot;:0};" parent="1" vertex="1">
          <mxGeometry x="490" y="511" width="10" height="50" as="geometry" />
        </mxCell>
        <mxCell id="L3l7ycFmvAnoxzPl64c1-30" value="" style="endArrow=classic;html=1;rounded=0;entryX=0;entryY=0;entryDx=0;entryDy=5;entryPerimeter=0;exitX=0.8;exitY=0.25;exitDx=0;exitDy=0;exitPerimeter=0;" parent="1" source="L3l7ycFmvAnoxzPl64c1-8" target="L3l7ycFmvAnoxzPl64c1-26" edge="1">
          <mxGeometry width="50" height="50" relative="1" as="geometry">
            <mxPoint x="320" y="410" as="sourcePoint" />
            <mxPoint x="480" y="410" as="targetPoint" />
          </mxGeometry>
        </mxCell>
        <mxCell id="L3l7ycFmvAnoxzPl64c1-31" value="4. readFile(file1.json)" style="edgeLabel;html=1;align=center;verticalAlign=middle;resizable=0;points=[];" parent="L3l7ycFmvAnoxzPl64c1-30" vertex="1" connectable="0">
          <mxGeometry x="-0.3576" y="1" relative="1" as="geometry">
            <mxPoint x="55" y="-10" as="offset" />
          </mxGeometry>
        </mxCell>
        <mxCell id="L3l7ycFmvAnoxzPl64c1-32" value="" style="endArrow=classic;html=1;rounded=0;dashed=1;entryX=0.8;entryY=0.318;entryDx=0;entryDy=0;entryPerimeter=0;" parent="1" source="L3l7ycFmvAnoxzPl64c1-26" target="L3l7ycFmvAnoxzPl64c1-8" edge="1">
          <mxGeometry width="50" height="50" relative="1" as="geometry">
            <mxPoint x="470" y="430" as="sourcePoint" />
            <mxPoint x="530" y="420" as="targetPoint" />
          </mxGeometry>
        </mxCell>
        <mxCell id="L3l7ycFmvAnoxzPl64c1-33" value="5. data" style="edgeLabel;html=1;align=center;verticalAlign=middle;resizable=0;points=[];" parent="L3l7ycFmvAnoxzPl64c1-32" vertex="1" connectable="0">
          <mxGeometry x="0.6121" y="3" relative="1" as="geometry">
            <mxPoint x="50" y="-15" as="offset" />
          </mxGeometry>
        </mxCell>
        <mxCell id="L3l7ycFmvAnoxzPl64c1-36" value="" style="endArrow=classic;html=1;rounded=0;dashed=1;" parent="1" edge="1">
          <mxGeometry width="50" height="50" relative="1" as="geometry">
            <mxPoint x="805" y="496" as="sourcePoint" />
            <mxPoint x="262" y="496" as="targetPoint" />
          </mxGeometry>
        </mxCell>
        <mxCell id="L3l7ycFmvAnoxzPl64c1-37" value="7. OK" style="edgeLabel;html=1;align=center;verticalAlign=middle;resizable=0;points=[];" parent="L3l7ycFmvAnoxzPl64c1-36" vertex="1" connectable="0">
          <mxGeometry x="0.6121" y="3" relative="1" as="geometry">
            <mxPoint x="-17" y="-19" as="offset" />
          </mxGeometry>
        </mxCell>
        <mxCell id="L3l7ycFmvAnoxzPl64c1-38" value="" style="endArrow=classic;html=1;rounded=0;entryX=0;entryY=0.3;entryDx=0;entryDy=0;entryPerimeter=0;exitX=0.8;exitY=0.557;exitDx=0;exitDy=0;exitPerimeter=0;" parent="1" edge="1">
          <mxGeometry width="50" height="50" relative="1" as="geometry">
            <mxPoint x="260" y="525.0799999999999" as="sourcePoint" />
            <mxPoint x="490" y="525" as="targetPoint" />
          </mxGeometry>
        </mxCell>
        <mxCell id="L3l7ycFmvAnoxzPl64c1-39" value="8. removeFile(file1.json)" style="edgeLabel;html=1;align=center;verticalAlign=middle;resizable=0;points=[];" parent="L3l7ycFmvAnoxzPl64c1-38" vertex="1" connectable="0">
          <mxGeometry x="-0.3576" y="1" relative="1" as="geometry">
            <mxPoint x="55" y="-11" as="offset" />
          </mxGeometry>
        </mxCell>
        <mxCell id="L3l7ycFmvAnoxzPl64c1-40" value="" style="endArrow=classic;html=1;rounded=0;dashed=1;entryX=0.8;entryY=0.614;entryDx=0;entryDy=0;entryPerimeter=0;exitX=-0.4;exitY=0.78;exitDx=0;exitDy=0;exitPerimeter=0;" parent="1" source="L3l7ycFmvAnoxzPl64c1-29" target="L3l7ycFmvAnoxzPl64c1-8" edge="1">
          <mxGeometry width="50" height="50" relative="1" as="geometry">
            <mxPoint x="450" y="550" as="sourcePoint" />
            <mxPoint x="500" y="580" as="targetPoint" />
          </mxGeometry>
        </mxCell>
        <mxCell id="L3l7ycFmvAnoxzPl64c1-41" value="9. OK" style="edgeLabel;html=1;align=center;verticalAlign=middle;resizable=0;points=[];" parent="L3l7ycFmvAnoxzPl64c1-40" vertex="1" connectable="0">
          <mxGeometry x="0.6121" y="3" relative="1" as="geometry">
            <mxPoint x="50" y="-15" as="offset" />
          </mxGeometry>
        </mxCell>
        <mxCell id="L3l7ycFmvAnoxzPl64c1-42" value="" style="endArrow=classic;html=1;rounded=0;entryX=0;entryY=0;entryDx=0;entryDy=5;entryPerimeter=0;" parent="1" target="L3l7ycFmvAnoxzPl64c1-27" edge="1">
          <mxGeometry width="50" height="50" relative="1" as="geometry">
            <mxPoint x="262" y="460" as="sourcePoint" />
            <mxPoint x="770" y="460" as="targetPoint" />
          </mxGeometry>
        </mxCell>
        <mxCell id="L3l7ycFmvAnoxzPl64c1-43" value="6. saveDocument(data)" style="edgeLabel;html=1;align=center;verticalAlign=middle;resizable=0;points=[];" parent="L3l7ycFmvAnoxzPl64c1-42" vertex="1" connectable="0">
          <mxGeometry x="-0.3576" y="1" relative="1" as="geometry">
            <mxPoint x="-42" y="-14" as="offset" />
          </mxGeometry>
        </mxCell>
        <mxCell id="zZN1jqjckYUUSWj70dUX-1" value="loop" style="shape=umlFrame;whiteSpace=wrap;html=1;pointerEvents=0;" vertex="1" parent="1">
          <mxGeometry x="180" y="360" width="640" height="240" as="geometry" />
        </mxCell>
        <mxCell id="L3l7ycFmvAnoxzPl64c1-8" value="" style="html=1;points=[[0,0,0,0,5],[0,1,0,0,-5],[1,0,0,0,5],[1,1,0,0,-5]];perimeter=orthogonalPerimeter;outlineConnect=0;targetShapes=umlLifeline;portConstraint=eastwest;newEdgeStyle={&quot;curved&quot;:0,&quot;rounded&quot;:0};" parent="1" vertex="1">
          <mxGeometry x="252" y="280" width="10" height="440" as="geometry" />
        </mxCell>
      </root>
    </mxGraphModel>
  </diagram>
</mxfile>
